<?xml version="1.0" standalone="no"?>
<!DOCTYPE svg PUBLIC "-//W3C//DTD SVG 20010904//EN"
 "http://www.w3.org/TR/2001/REC-SVG-20010904/DTD/svg10.dtd">
<svg version="1.0" xmlns="http://www.w3.org/2000/svg"
 width="2932.000000pt" height="2932.000000pt" viewBox="0 0 2932.000000 2932.000000"
 preserveAspectRatio="xMidYMid meet">
<metadata>
Created by potrace 1.14, written by Peter Selinger 2001-2017
</metadata>
<g transform="translate(0.000000,2932.000000) scale(0.100000,-0.100000)"
fill="#000000" stroke="none">
<path d="M5985 29308 c-15 -4 -432 -413 -1030 -1011 -861 -861 -1005 -1009
-1005 -1034 0 -24 491 -519 3540 -3568 l3540 -3540 3622 0 c2558 0 3628 3
3643 11 25 13 7062 7049 7076 7076 5 10 7 29 3 41 -8 26 -2007 2027 -2026
2028 -101 4 -17346 2 -17363 -3z"/>
<path d="M1018 24362 l-1008 -1007 0 -8690 c0 -5105 4 -8696 9 -8704 5 -8 367
-372 805 -810 1320 -1321 1211 -1215 1242 -1207 36 9 7091 7062 7098 7097 3
13 4 1650 3 3636 l-2 3613 -3540 3540 c-3137 3137 -3543 3540 -3570 3540 -26
0 -149 -119 -1037 -1008z"/>
<path d="M23699 21831 l-3539 -3539 0 -3633 0 -3634 3543 -3543 c3344 -3344
3545 -3543 3572 -3538 22 4 267 243 1035 1011 l1005 1005 1 8688 c1 4778 -2
8693 -6 8701 -4 7 -459 465 -1011 1017 -869 869 -1008 1004 -1033 1004 -25 0
-487 -459 -3567 -3539z"/>
<path d="M11040 9162 c-5 -2 -1603 -1597 -3550 -3544 -2941 -2941 -3540 -3544
-3540 -3567 0 -22 175 -201 1004 -1031 553 -552 1013 -1007 1023 -1010 14 -5
17344 -6 17376 -1 14 2 2003 1994 2016 2019 7 12 9 31 6 42 -3 10 -1597 1610
-3542 3555 -2423 2423 -3542 3535 -3557 3536 -69 3 -7228 3 -7236 1z"/>
</g>
</svg>
